<mxfile host="app.diagrams.net" modified="2024-02-11T10:23:56.899Z" agent="Mozilla/5.0 (X11; Linux x86_64) AppleWebKit/537.36 (KHTML, like Gecko) Chrome/121.0.0.0 Safari/537.36 Edg/121.0.0.0" etag="aPl0yxa3QY2fv1JGPcet" version="23.1.2" type="device">
  <diagram name="Page-1" id="K8w_MJRPMISs_ZkznXJ9">
    <mxGraphModel dx="1871" dy="602" grid="1" gridSize="10" guides="1" tooltips="1" connect="1" arrows="1" fold="1" page="1" pageScale="1" pageWidth="827" pageHeight="1169" math="0" shadow="0">
      <root>
        <mxCell id="0" />
        <mxCell id="1" parent="0" />
        <mxCell id="c0WlK5MnXjArckn8Ruph-1" value="Admin" style="swimlane;fontStyle=1;align=center;verticalAlign=top;childLayout=stackLayout;horizontal=1;startSize=26;horizontalStack=0;resizeParent=1;resizeParentMax=0;resizeLast=0;collapsible=1;marginBottom=0;whiteSpace=wrap;html=1;labelBackgroundColor=default;" vertex="1" parent="1">
          <mxGeometry x="320" y="260" width="183" height="230" as="geometry">
            <mxRectangle x="345" y="150" width="80" height="30" as="alternateBounds" />
          </mxGeometry>
        </mxCell>
        <mxCell id="c0WlK5MnXjArckn8Ruph-2" value="- name : string&lt;br&gt;- password : string&lt;br&gt;# email : string&amp;nbsp;" style="text;strokeColor=none;fillColor=none;align=left;verticalAlign=top;spacingLeft=4;spacingRight=4;overflow=hidden;rotatable=0;points=[[0,0.5],[1,0.5]];portConstraint=eastwest;whiteSpace=wrap;html=1;labelBackgroundColor=default;" vertex="1" parent="c0WlK5MnXjArckn8Ruph-1">
          <mxGeometry y="26" width="183" height="54" as="geometry" />
        </mxCell>
        <mxCell id="c0WlK5MnXjArckn8Ruph-3" value="" style="line;strokeWidth=1;fillColor=none;align=left;verticalAlign=middle;spacingTop=-1;spacingLeft=3;spacingRight=3;rotatable=0;labelPosition=right;points=[];portConstraint=eastwest;strokeColor=inherit;labelBackgroundColor=default;" vertex="1" parent="c0WlK5MnXjArckn8Ruph-1">
          <mxGeometry y="80" width="183" height="8" as="geometry" />
        </mxCell>
        <mxCell id="c0WlK5MnXjArckn8Ruph-4" value="+ Register()&lt;br&gt;+ login()&lt;br&gt;+&amp;nbsp;ban_user()&lt;br&gt;+ un ban_user()&lt;br&gt;+ delete message()&lt;br&gt;+ update application content()&lt;br&gt;+ view sys stats in dashboard()&lt;br&gt;+ user account maintenance()&lt;br&gt;+ logout()" style="text;strokeColor=none;fillColor=none;align=left;verticalAlign=top;spacingLeft=4;spacingRight=4;overflow=hidden;rotatable=0;points=[[0,0.5],[1,0.5]];portConstraint=eastwest;whiteSpace=wrap;html=1;labelBackgroundColor=default;" vertex="1" parent="c0WlK5MnXjArckn8Ruph-1">
          <mxGeometry y="88" width="183" height="142" as="geometry" />
        </mxCell>
        <mxCell id="c0WlK5MnXjArckn8Ruph-5" value="User" style="swimlane;fontStyle=1;align=center;verticalAlign=top;childLayout=stackLayout;horizontal=1;startSize=26;horizontalStack=0;resizeParent=1;resizeParentMax=0;resizeLast=0;collapsible=1;marginBottom=0;whiteSpace=wrap;html=1;labelBackgroundColor=default;" vertex="1" parent="1">
          <mxGeometry x="650" y="140" width="178" height="298" as="geometry">
            <mxRectangle x="345" y="150" width="80" height="30" as="alternateBounds" />
          </mxGeometry>
        </mxCell>
        <mxCell id="c0WlK5MnXjArckn8Ruph-6" value="+ name : string&lt;br&gt;- password : string&lt;br&gt;# email : string&amp;nbsp;" style="text;strokeColor=none;fillColor=none;align=left;verticalAlign=top;spacingLeft=4;spacingRight=4;overflow=hidden;rotatable=0;points=[[0,0.5],[1,0.5]];portConstraint=eastwest;whiteSpace=wrap;html=1;labelBackgroundColor=default;" vertex="1" parent="c0WlK5MnXjArckn8Ruph-5">
          <mxGeometry y="26" width="178" height="74" as="geometry" />
        </mxCell>
        <mxCell id="c0WlK5MnXjArckn8Ruph-7" value="" style="line;strokeWidth=1;fillColor=none;align=left;verticalAlign=middle;spacingTop=-1;spacingLeft=3;spacingRight=3;rotatable=0;labelPosition=right;points=[];portConstraint=eastwest;strokeColor=inherit;labelBackgroundColor=default;" vertex="1" parent="c0WlK5MnXjArckn8Ruph-5">
          <mxGeometry y="100" width="178" height="8" as="geometry" />
        </mxCell>
        <mxCell id="c0WlK5MnXjArckn8Ruph-8" value="+ Register()&lt;br&gt;+ login()&lt;br&gt;+ new chat()&lt;br&gt;+ send message()&lt;br&gt;+ search for message() / chat()&lt;br&gt;+ read / receive message()&lt;br&gt;+ delete message()&lt;br&gt;+ remove chat()&lt;br&gt;+ change profile picture()&lt;br&gt;+ update profile info()&lt;br&gt;+ block account()&lt;br&gt;+ logout()" style="text;strokeColor=none;fillColor=none;align=left;verticalAlign=top;spacingLeft=4;spacingRight=4;overflow=hidden;rotatable=0;points=[[0,0.5],[1,0.5]];portConstraint=eastwest;whiteSpace=wrap;html=1;labelBackgroundColor=default;" vertex="1" parent="c0WlK5MnXjArckn8Ruph-5">
          <mxGeometry y="108" width="178" height="190" as="geometry" />
        </mxCell>
        <mxCell id="c0WlK5MnXjArckn8Ruph-9" value="Message" style="swimlane;fontStyle=1;align=center;verticalAlign=top;childLayout=stackLayout;horizontal=1;startSize=26;horizontalStack=0;resizeParent=1;resizeParentMax=0;resizeLast=0;collapsible=1;marginBottom=0;whiteSpace=wrap;html=1;labelBackgroundColor=default;" vertex="1" parent="1">
          <mxGeometry x="-10" y="183.41" width="160" height="178" as="geometry">
            <mxRectangle x="345" y="150" width="80" height="30" as="alternateBounds" />
          </mxGeometry>
        </mxCell>
        <mxCell id="c0WlK5MnXjArckn8Ruph-10" value="# id : int&lt;br&gt;+ content : string&lt;br&gt;+ timestamp : data&lt;br&gt;+ sender : user&lt;br&gt;+ receiver : user&amp;nbsp;" style="text;strokeColor=none;fillColor=none;align=left;verticalAlign=top;spacingLeft=4;spacingRight=4;overflow=hidden;rotatable=0;points=[[0,0.5],[1,0.5]];portConstraint=eastwest;whiteSpace=wrap;html=1;labelBackgroundColor=default;" vertex="1" parent="c0WlK5MnXjArckn8Ruph-9">
          <mxGeometry y="26" width="160" height="84" as="geometry" />
        </mxCell>
        <mxCell id="c0WlK5MnXjArckn8Ruph-11" value="" style="line;strokeWidth=1;fillColor=none;align=left;verticalAlign=middle;spacingTop=-1;spacingLeft=3;spacingRight=3;rotatable=0;labelPosition=right;points=[];portConstraint=eastwest;strokeColor=inherit;labelBackgroundColor=default;" vertex="1" parent="c0WlK5MnXjArckn8Ruph-9">
          <mxGeometry y="110" width="160" height="8" as="geometry" />
        </mxCell>
        <mxCell id="c0WlK5MnXjArckn8Ruph-12" value="+ send()&lt;br&gt;+ read()&lt;br&gt;+ delete()" style="text;strokeColor=none;fillColor=none;align=left;verticalAlign=top;spacingLeft=4;spacingRight=4;overflow=hidden;rotatable=0;points=[[0,0.5],[1,0.5]];portConstraint=eastwest;whiteSpace=wrap;html=1;labelBackgroundColor=default;" vertex="1" parent="c0WlK5MnXjArckn8Ruph-9">
          <mxGeometry y="118" width="160" height="60" as="geometry" />
        </mxCell>
        <mxCell id="c0WlK5MnXjArckn8Ruph-13" value="" style="endArrow=classic;html=1;rounded=0;exitX=0.452;exitY=-0.002;exitDx=0;exitDy=0;entryX=0.5;entryY=0;entryDx=0;entryDy=0;exitPerimeter=0;labelBackgroundColor=default;" edge="1" parent="1" source="c0WlK5MnXjArckn8Ruph-5" target="c0WlK5MnXjArckn8Ruph-9">
          <mxGeometry width="50" height="50" relative="1" as="geometry">
            <mxPoint x="240" y="280" as="sourcePoint" />
            <mxPoint x="290" y="230" as="targetPoint" />
            <Array as="points">
              <mxPoint x="730" y="110" />
              <mxPoint x="640" y="110" />
              <mxPoint x="400" y="110" />
              <mxPoint x="160" y="110" />
              <mxPoint x="70" y="110" />
            </Array>
          </mxGeometry>
        </mxCell>
        <mxCell id="c0WlK5MnXjArckn8Ruph-14" value="1" style="edgeLabel;html=1;align=center;verticalAlign=middle;resizable=0;points=[];fontStyle=1;fontSize=13;labelBackgroundColor=default;" vertex="1" connectable="0" parent="c0WlK5MnXjArckn8Ruph-13">
          <mxGeometry x="-0.9317" y="2" relative="1" as="geometry">
            <mxPoint as="offset" />
          </mxGeometry>
        </mxCell>
        <mxCell id="c0WlK5MnXjArckn8Ruph-15" value="1...*" style="edgeLabel;html=1;align=center;verticalAlign=middle;resizable=0;points=[];fontSize=13;fontStyle=1;labelBackgroundColor=default;" vertex="1" connectable="0" parent="c0WlK5MnXjArckn8Ruph-13">
          <mxGeometry x="0.9007" y="2" relative="1" as="geometry">
            <mxPoint as="offset" />
          </mxGeometry>
        </mxCell>
        <mxCell id="c0WlK5MnXjArckn8Ruph-16" value="" style="endArrow=classic;html=1;rounded=0;exitX=1.003;exitY=1.068;exitDx=0;exitDy=0;exitPerimeter=0;entryX=-0.012;entryY=-0.021;entryDx=0;entryDy=0;entryPerimeter=0;labelBackgroundColor=default;" edge="1" parent="1" source="c0WlK5MnXjArckn8Ruph-2" target="c0WlK5MnXjArckn8Ruph-8">
          <mxGeometry width="50" height="50" relative="1" as="geometry">
            <mxPoint x="260" y="300" as="sourcePoint" />
            <mxPoint x="310" y="250" as="targetPoint" />
            <Array as="points">
              <mxPoint x="520" y="365" />
              <mxPoint x="520" y="245" />
            </Array>
          </mxGeometry>
        </mxCell>
        <mxCell id="c0WlK5MnXjArckn8Ruph-17" value="1...*" style="edgeLabel;html=1;align=center;verticalAlign=middle;resizable=0;points=[];fontSize=13;fontStyle=1;labelBackgroundColor=default;" vertex="1" connectable="0" parent="c0WlK5MnXjArckn8Ruph-16">
          <mxGeometry x="0.7563" y="-1" relative="1" as="geometry">
            <mxPoint as="offset" />
          </mxGeometry>
        </mxCell>
        <mxCell id="c0WlK5MnXjArckn8Ruph-18" value="1...*" style="edgeLabel;html=1;align=center;verticalAlign=middle;resizable=0;points=[];fontStyle=1;fontSize=13;labelBackgroundColor=default;" vertex="1" connectable="0" parent="c0WlK5MnXjArckn8Ruph-16">
          <mxGeometry x="-0.8449" relative="1" as="geometry">
            <mxPoint as="offset" />
          </mxGeometry>
        </mxCell>
        <mxCell id="c0WlK5MnXjArckn8Ruph-19" value="" style="endArrow=classic;html=1;rounded=0;exitX=-0.008;exitY=1.078;exitDx=0;exitDy=0;exitPerimeter=0;entryX=1.025;entryY=1.033;entryDx=0;entryDy=0;entryPerimeter=0;labelBackgroundColor=default;" edge="1" parent="1" target="c0WlK5MnXjArckn8Ruph-10">
          <mxGeometry width="50" height="50" relative="1" as="geometry">
            <mxPoint x="320.72000000000025" y="365.77199999999993" as="sourcePoint" />
            <mxPoint x="238.48000000000002" y="297" as="targetPoint" />
            <Array as="points">
              <mxPoint x="282" y="366" />
              <mxPoint x="282" y="340" />
              <mxPoint x="282" y="297" />
            </Array>
          </mxGeometry>
        </mxCell>
        <mxCell id="c0WlK5MnXjArckn8Ruph-20" value="1" style="edgeLabel;html=1;align=center;verticalAlign=middle;resizable=0;points=[];fontSize=13;fontStyle=1;labelBackgroundColor=default;" vertex="1" connectable="0" parent="c0WlK5MnXjArckn8Ruph-19">
          <mxGeometry x="-0.7524" relative="1" as="geometry">
            <mxPoint as="offset" />
          </mxGeometry>
        </mxCell>
        <mxCell id="c0WlK5MnXjArckn8Ruph-21" value="1...*" style="edgeLabel;html=1;align=center;verticalAlign=middle;resizable=0;points=[];fontSize=13;fontStyle=1;labelBackgroundColor=default;" vertex="1" connectable="0" parent="c0WlK5MnXjArckn8Ruph-19">
          <mxGeometry x="0.7815" y="-1" relative="1" as="geometry">
            <mxPoint y="5" as="offset" />
          </mxGeometry>
        </mxCell>
      </root>
    </mxGraphModel>
  </diagram>
</mxfile>
